<?xml version="1.0" encoding="utf-8"?>
<!-- Generator: Adobe Illustrator 16.0.0, SVG Export Plug-In . SVG Version: 6.00 Build 0)  -->
<!DOCTYPE svg PUBLIC "-//W3C//DTD SVG 1.1//EN" "http://www.w3.org/Graphics/SVG/1.1/DTD/svg11.dtd">
<svg version="1.1" id="Layer_1" xmlns="http://www.w3.org/2000/svg" xmlns:xlink="http://www.w3.org/1999/xlink" x="0px" y="0px"
	 width="500px" height="500px" viewBox="580.098 -40.63 500 500" enable-background="new 580.098 -40.63 500 500"
	 xml:space="preserve">
<g id="Layer_1_1_" display="none">
	<g display="inline">
		<path fill="#014E46" d="M45.77,159.402V43.077h21.285v116.325H45.77z"/>
		<path fill="#014E46" d="M179.845,43.077h19.965v116.325h-16.005l-62.37-81.181v81.181h-19.8V43.077h15.84l62.37,81.015V43.077
			L179.845,43.077z"/>
		<path fill="#014E46" d="M234.392,159.402V43.077h21.285v116.325H234.392z"/>
		<path fill="#014E46" d="M312.614,153.627c-8.307-4.839-14.714-11.769-19.223-20.79c-4.512-9.019-6.765-19.578-6.765-31.68
			c0-12.1,2.228-22.631,6.682-31.598c4.455-8.964,10.862-15.866,19.223-20.707c8.358-4.84,18.205-7.261,29.535-7.261
			c11.328,0,21.146,2.421,29.452,7.261c8.305,4.841,14.686,11.743,19.141,20.707c4.455,8.967,6.683,19.498,6.683,31.598
			c0,12.102-2.256,22.661-6.765,31.68c-4.512,9.021-10.919,15.951-19.224,20.79c-8.307,4.842-18.066,7.26-29.287,7.26
			C330.736,160.887,320.918,158.469,312.614,153.627z M367.064,132.837c5.993-7.368,8.991-17.928,8.991-31.68
			c0-13.749-2.998-24.281-8.991-31.598c-5.997-7.314-14.329-10.973-24.998-10.973c-10.781,0-19.168,3.658-25.162,10.973
			c-5.996,7.316-8.992,17.849-8.992,31.598c0,13.752,2.996,24.312,8.992,31.68c5.994,7.371,14.381,11.056,25.162,11.056
			C352.735,143.893,361.067,140.208,367.064,132.837z"/>
		<path fill="#014E46" d="M428.293,159.402V43.077h21.285v98.835h54.285v17.49H428.293z"/>
		<path fill="#014E46" d="M57.484,346.513c-8.25-8.25-12.375-20.295-12.375-36.136v-69.3h20.79v70.455
			c0,10.011,2.364,17.572,7.096,22.688c4.728,5.115,11.658,7.674,20.79,7.674c9.018,0,15.894-2.584,20.625-7.756
			c4.728-5.17,7.095-12.705,7.095-22.604v-70.455h20.79v69.3c0,15.732-4.125,27.749-12.375,36.053
			c-8.25,8.307-20.295,12.459-36.135,12.459C77.834,358.888,65.734,354.763,57.484,346.513z"/>
		<path fill="#014E46" d="M340.072,241.077h20.297l-41.086,116.324h-17.325l-29.204-83.654l-29.371,83.654h-17.325l-40.92-116.324
			h21.45l28.875,86.625l30.36-86.625h15.015l29.535,87.119L340.072,241.077z"/>
		<path fill="#014E46" d="M481.753,357.401l-11.715-27.225h-56.595l-11.716,27.225h-21.449l52.635-116.324h17.325l52.635,116.324
			H481.753z M420.373,313.679h42.57l-21.285-49.501L420.373,313.679z"/>
	</g>
</g>
<g id="Layer_2">
	<path fill="none" stroke="#014E46" stroke-width="9" stroke-miterlimit="10" d="M857.686,92.792
		c3.438-2.121,24.033-32.875,36.729-42.079c10.68-7.738,23.863-10.3,35.492-13.753c0.459,7.71,0.16,12.262-6.256,17.845
		c17.906-13.596,34.143-20.607,55.9-22.243c-9.016,2.335-17.867,5.529-25.807,10.511c27.496,0.248,65.184-17.817,91.07-6.367
		c-29.326,17.642-64.873,13.596-94.195,28.529c-25.354,12.911-59.803,17.433-72.182,42.086"/>
	<path fill="#014E46" d="M871.074,217.068c-7.715,14.867-43.568-26.991-56.039-29.058"/>
	<path fill="#014E46" d="M719.428,191.613c-11.969,10.327,24.287,17.398,48.574,34.797"/>
	<path fill="#014E46" d="M698.387,234.836c3.717,13.658,16.068,14.783,27.408,21.867"/>
	<path fill="#014E46" d="M739.699,340.479c-23.039-0.438-33.324-17.561-42.479-27.938"/>
	<path fill="#014E46" d="M787.92,92.537c16.375,7.198,35.762,15.356,47.736,26.981"/>
	<path fill="none" stroke="#014E46" stroke-width="9" stroke-miterlimit="10" d="M615.654,381.033
		c-1.215-10.283,1.748-18.303,6.178-27.508c15.035-31.252,34.713-63.297,51.479-94.102c7.252-13.32,13.574-25.498,22.779-37.744
		c15.52-20.646,30.582-38.466,44.135-59.803c17.33-27.282,28.594-64.921,63.793-75.507c34.172-10.277,70.682,21.057,94.367,43.527
		c15.1,14.326,15.844,27.458,4.209,46.23c-23.203,37.445-62.924,73.637-94.023,105.273c-31.613,32.156-58.066,50.91-99.98,67.971
		C675.434,362.865,618.863,399.623,615.654,381.033"/>
</g>
</svg>
