<?xml version="1.0" encoding="utf-8"?>
<!-- Generator: Adobe Illustrator 16.0.0, SVG Export Plug-In . SVG Version: 6.00 Build 0)  -->
<!DOCTYPE svg PUBLIC "-//W3C//DTD SVG 1.1//EN" "http://www.w3.org/Graphics/SVG/1.1/DTD/svg11.dtd">
<svg version="1.1" xmlns="http://www.w3.org/2000/svg" xmlns:xlink="http://www.w3.org/1999/xlink" x="0px" y="0px"
	 width="1067.797px" height="400.479px" viewBox="0 0 1067.797 400.479" enable-background="new 0 0 1067.797 400.479"
	 xml:space="preserve">
<g id="Layer_1">
	<g>
		<path fill="#014E46" d="M45.77,159.402V43.077h21.285v116.325H45.77z"/>
		<path fill="#014E46" d="M179.845,43.077h19.965v116.325h-16.005l-62.37-81.181v81.181h-19.8V43.077h15.84l62.37,81.015V43.077z"/>
		<path fill="#014E46" d="M234.392,159.402V43.077h21.285v116.325H234.392z"/>
		<path fill="#014E46" d="M312.614,153.627c-8.307-4.839-14.714-11.769-19.223-20.79c-4.512-9.019-6.765-19.578-6.765-31.68
			c0-12.1,2.228-22.631,6.682-31.598c4.455-8.964,10.862-15.866,19.223-20.707c8.359-4.84,18.205-7.261,29.535-7.261
			c11.329,0,21.146,2.421,29.453,7.261c8.304,4.841,14.685,11.743,19.14,20.707c4.455,8.967,6.683,19.498,6.683,31.598
			c0,12.102-2.256,22.661-6.765,31.68c-4.512,9.021-10.919,15.951-19.223,20.79c-8.307,4.842-18.067,7.26-29.288,7.26
			C330.736,160.887,320.918,158.469,312.614,153.627z M367.064,132.837c5.994-7.368,8.992-17.928,8.992-31.68
			c0-13.749-2.998-24.281-8.992-31.598c-5.997-7.314-14.329-10.973-24.998-10.973c-10.781,0-19.168,3.658-25.162,10.973
			c-5.996,7.316-8.992,17.849-8.992,31.598c0,13.752,2.996,24.312,8.992,31.68c5.994,7.371,14.381,11.056,25.162,11.056
			C352.735,143.893,361.067,140.208,367.064,132.837z"/>
		<path fill="#014E46" d="M428.293,159.402V43.077h21.285v98.835h54.285v17.49H428.293z"/>
		<path fill="#014E46" d="M57.484,346.513c-8.25-8.25-12.375-20.295-12.375-36.136v-69.3h20.79v70.455
			c0,10.011,2.364,17.572,7.096,22.688c4.728,5.115,11.658,7.673,20.79,7.673c9.018,0,15.894-2.584,20.625-7.755
			c4.728-5.17,7.095-12.705,7.095-22.605v-70.455h20.79v69.3c0,15.732-4.125,27.749-12.375,36.053
			c-8.25,8.307-20.295,12.458-36.135,12.458C77.834,358.888,65.734,354.763,57.484,346.513z"/>
		<path fill="#014E46" d="M340.072,241.077h20.297l-41.086,116.325h-17.325l-29.204-83.655l-29.371,83.655h-17.325l-40.92-116.325
			h21.45l28.875,86.625l30.36-86.625h15.015l29.535,87.12L340.072,241.077z"/>
		<path fill="#014E46" d="M481.753,357.402l-11.715-27.225h-56.595l-11.715,27.225h-21.45l52.635-116.325h17.325l52.635,116.325
			H481.753z M420.373,313.678h42.57l-21.285-49.5L420.373,313.678z"/>
	</g>
	<path fill="none" stroke="#014E46" stroke-width="9" stroke-miterlimit="10" d="M583.289,375.225
		c-1.216-10.283,1.747-18.302,6.177-27.507c15.036-31.252,34.713-63.297,51.479-94.102c7.252-13.319,13.575-25.498,22.779-37.744
		c15.519-20.646,30.582-38.466,44.135-59.802c17.33-27.282,28.593-64.921,63.792-75.507c34.172-10.277,70.682,21.057,94.368,43.527
		c15.1,14.326,15.843,27.458,4.209,46.23c-23.204,37.445-62.924,73.637-94.024,105.274c-31.613,32.155-58.065,50.91-99.979,67.969
		C643.068,357.058,586.497,393.816,583.289,375.225"/>
</g>
<g id="Layer_2">
	<path fill="none" stroke="#014E46" stroke-width="9" stroke-miterlimit="10" d="M825.32,86.985
		c3.437-2.121,24.033-32.875,36.729-42.079c10.679-7.738,23.862-10.3,35.491-13.753c0.46,7.71,0.161,12.262-6.255,17.845
		c17.905-13.596,34.143-20.607,55.901-22.243c-9.016,2.335-17.868,5.529-25.808,10.511c27.496,0.248,65.184-17.817,91.071-6.367
		c-29.327,17.642-64.873,13.596-94.195,28.529c-25.354,12.911-59.803,17.433-72.182,42.086"/>
	<path fill="#014E46" d="M838.709,211.261c-7.715,14.868-43.568-26.991-56.04-29.058"/>
	<path fill="#014E46" d="M687.063,185.806c-11.97,10.327,24.286,17.398,48.574,34.796"/>
	<path fill="#014E46" d="M666.021,229.029c3.717,13.658,16.068,14.783,27.409,21.866"/>
	<path fill="#014E46" d="M707.333,334.672c-23.038-0.438-33.323-17.561-42.478-27.938"/>
	<path fill="#014E46" d="M755.554,86.73c16.376,7.198,35.761,15.356,47.736,26.981"/>
</g>
</svg>
