<?xml version="1.0" encoding="utf-8"?>
<!-- Generator: Adobe Illustrator 16.0.0, SVG Export Plug-In . SVG Version: 6.00 Build 0)  -->
<!DOCTYPE svg PUBLIC "-//W3C//DTD SVG 1.1//EN" "http://www.w3.org/Graphics/SVG/1.1/DTD/svg11.dtd">
<svg version="1.1" xmlns="http://www.w3.org/2000/svg" xmlns:xlink="http://www.w3.org/1999/xlink" x="0px" y="0px"
	 width="970.451px" height="400.479px" viewBox="0 0 970.451 400.479" enable-background="new 0 0 970.451 400.479"
	 xml:space="preserve">
<g id="Layer_1">
	<g>
		<path fill="#014E46" d="M45.77,159.402V43.077h21.285v116.325H45.77z"/>
		<path fill="#014E46" d="M179.845,43.077h19.965v116.325h-16.005l-62.37-81.181v81.181h-19.8V43.077h15.84l62.37,81.015V43.077z"/>
		<path fill="#014E46" d="M234.392,159.402V43.077h21.285v116.325H234.392z"/>
		<path fill="#014E46" d="M312.614,153.627c-8.307-4.839-14.714-11.769-19.223-20.79c-4.512-9.019-6.765-19.578-6.765-31.68
			c0-12.1,2.228-22.631,6.682-31.598c4.455-8.964,10.862-15.866,19.223-20.707c8.359-4.84,18.205-7.261,29.535-7.261
			c11.329,0,21.146,2.421,29.453,7.261c8.304,4.841,14.685,11.743,19.14,20.707c4.455,8.967,6.683,19.498,6.683,31.598
			c0,12.102-2.256,22.661-6.765,31.68c-4.512,9.021-10.919,15.951-19.223,20.79c-8.307,4.842-18.067,7.26-29.288,7.26
			C330.736,160.887,320.918,158.469,312.614,153.627z M367.064,132.837c5.994-7.368,8.992-17.928,8.992-31.68
			c0-13.749-2.998-24.281-8.992-31.598c-5.997-7.314-14.329-10.973-24.998-10.973c-10.781,0-19.168,3.658-25.162,10.973
			c-5.996,7.316-8.992,17.849-8.992,31.598c0,13.752,2.996,24.312,8.992,31.68c5.994,7.371,14.381,11.056,25.162,11.056
			C352.735,143.893,361.067,140.208,367.064,132.837z"/>
		<path fill="#014E46" d="M428.293,159.402V43.077h21.285v98.835h54.285v17.49H428.293z"/>
		<path fill="#014E46" d="M57.484,346.513c-8.25-8.25-12.375-20.295-12.375-36.136v-69.3h20.79v70.455
			c0,10.011,2.364,17.572,7.096,22.688c4.728,5.115,11.658,7.673,20.79,7.673c9.018,0,15.894-2.584,20.625-7.755
			c4.728-5.17,7.095-12.705,7.095-22.605v-70.455h20.79v69.3c0,15.732-4.125,27.749-12.375,36.053
			c-8.25,8.307-20.295,12.458-36.135,12.458C77.834,358.888,65.734,354.763,57.484,346.513z"/>
		<path fill="#014E46" d="M340.072,241.077h20.297l-41.086,116.325h-17.325l-29.204-83.655l-29.371,83.655h-17.325l-40.92-116.325
			h21.45l28.875,86.625l30.36-86.625h15.015l29.535,87.12L340.072,241.077z"/>
		<path fill="#014E46" d="M481.753,357.402l-11.715-27.225h-56.595l-11.715,27.225h-21.45l52.635-116.325h17.325l52.635,116.325
			H481.753z M420.373,313.678h42.57l-21.285-49.5L420.373,313.678z"/>
	</g>
	<path fill="none" stroke="#014E46" stroke-width="8" stroke-miterlimit="10" d="M561.476,344.105
		c-1.043-8.825,1.5-15.708,5.302-23.608c12.905-26.821,29.793-54.324,44.182-80.762c6.224-11.433,11.65-21.885,19.551-32.395
		c13.318-17.72,26.247-33.015,37.879-51.326c14.874-23.416,24.54-55.719,54.749-64.804c29.328-8.821,60.663,18.071,80.992,37.356
		c12.96,12.296,13.598,23.566,3.613,39.677c-19.916,32.138-54.005,63.199-80.698,90.353c-27.132,27.598-49.834,43.694-85.808,58.335
		C612.781,328.513,564.229,360.062,561.476,344.105"/>
</g>
<g id="Layer_2">
	<path fill="none" stroke="#014E46" stroke-width="8" stroke-miterlimit="10" d="M769.2,96.722
		c2.95-1.82,20.627-28.215,31.524-36.114c9.164-6.642,20.479-8.84,30.459-11.804c0.396,6.618,0.139,10.524-5.368,15.316
		c15.367-11.669,29.304-17.687,47.979-19.091c-7.737,2.004-15.335,4.746-22.149,9.021c23.599,0.212,55.943-15.292,78.162-5.464
		c-25.17,15.142-55.678,11.669-80.844,24.485c-21.76,11.082-51.325,14.961-61.95,36.121"/>
	<path fill="#014E46" d="M780.69,203.382c-6.62,12.762-37.392-23.164-48.096-24.938"/>
	<path fill="#014E46" d="M650.541,181.536c-10.273,8.863,20.844,14.932,41.688,29.863"/>
	<path fill="#014E46" d="M623.04,218.633c3.189,11.722,13.79,12.687,23.523,18.767"/>
	<path fill="#014E46" d="M658.496,309.301c-19.771-0.376-28.6-15.072-36.456-23.979"/>
	<path fill="#014E46" d="M709.323,96.503c14.055,6.178,30.691,13.18,40.97,23.157"/>
</g>
</svg>
